<svg xmlns="http://www.w3.org/2000/svg" xmlns:ev="http://www.w3.org/2001/xml-events" xmlns:xlink="http://www.w3.org/1999/xlink" width="661.284" height="545.063" class="st8" color-interpolation-filters="sRGB" viewBox="0 0 495.963 408.797" xml:space="preserve"><style type="text/css">.st1{fill:#fff;stroke:#000;stroke-linecap:round;stroke-linejoin:round;stroke-width:.75}.st2{fill:#000;font-family:Calibri;font-size:1.00001em}.st3{fill:none;stroke:none;stroke-linecap:round;stroke-linejoin:round;stroke-width:.75}.st4{fill:#000;font-family:Calibri Light;font-size:8.16666em}.st5,.st6{stroke:#000}.st5{marker-end:url(#mrkr2-41);stroke-dasharray:5.25,3.75;stroke-linecap:round;stroke-linejoin:round;stroke-width:.75}.st6{fill:#000;fill-opacity:1;stroke-opacity:1;stroke-width:.22935779816514}.st7{font-size:1em}.st8{fill:none;fill-rule:evenodd;font-size:12px;overflow:visible;stroke-linecap:square;stroke-miterlimit:3}</style><defs id="Markers"><g id="lend2"><path stroke="none" d="M 1 1 L 0 0 L 1 -1 L 1 1"/></g><marker id="mrkr2-41" class="st6" markerUnits="strokeWidth" orient="auto" overflow="visible" refX="-4.36"><use transform="scale(-4.36,-4.36)" xlink:href="#lend2"/></marker></defs><g><title>Pagina 1</title><g id="shape1-1" transform="translate(18.375,-367.745)"><title>Foglio.1</title><desc>voting station 1</desc><rect width="90.709" height="22.677" x="0" y="386.12" class="st1"/><text x="7.43" y="401.06" class="st2">voting station 1</text></g><g id="shape2-4" transform="translate(120.422,-367.745)"><title>Foglio.2</title><desc>voting station 2</desc><rect width="90.709" height="22.677" x="0" y="386.12" class="st1"/><text x="7.43" y="401.06" class="st2">voting station 2</text></g><g id="shape3-7" transform="translate(222.469,-367.745)"><title>Foglio.3</title><desc>voting station 3</desc><rect width="90.709" height="22.677" x="0" y="386.12" class="st1"/><text x="7.43" y="401.06" class="st2">voting station 3</text></g><g id="shape4-10" transform="translate(386.879,-367.745)"><title>Foglio.4</title><desc>voting station n</desc><rect width="90.709" height="22.677" x="0" y="386.12" class="st1"/><text x="7.32" y="401.06" class="st2">voting station n</text></g><g id="shape5-13" transform="translate(324.517,-367.745)"><title>Foglio.5</title><desc>...</desc><rect width="45.354" height="22.677" x="0" y="386.12" class="st3"/><text x="18.13" y="401.06" class="st2">...</text></g><g id="shape6-16" transform="translate(233.808,-308.926)"><title>Foglio.6</title><rect width="53.858" height="13.465" x="0" y="395.333" class="st1"/></g><g id="shape7-18" transform="translate(233.808,-295.816)"><title>Foglio.7</title><rect width="53.858" height="13.465" x="0" y="395.333" class="st1"/></g><g id="shape8-20" transform="translate(233.808,-282.351)"><title>Foglio.8</title><rect width="53.858" height="13.465" x="0" y="395.333" class="st1"/></g><g id="shape9-22" transform="translate(233.808,-268.887)"><title>Foglio.9</title><rect width="53.858" height="13.465" x="0" y="395.333" class="st1"/></g><g id="shape10-24" transform="translate(233.808,-243.021)"><title>Foglio.10</title><desc>...</desc><rect width="53.858" height="25.937" x="0" y="382.86" class="st1"/><text x="22.39" y="399.43" class="st2">...</text></g><g id="shape11-27" transform="translate(294.753,-278.276)"><title>Foglio.11</title><desc>voter’s queue</desc><rect width="80.787" height="23.033" x="0" y="385.764" class="st3"/><text x="6.8" y="400.88" class="st2">voter’s queue</text></g><g id="shape13-30" transform="translate(202.627,-241.603)"><title>Foglio.13</title><desc>{</desc><rect width="34.016" height="89.291" x="0" y="319.506" class="st3"/><text x="4" y="393.55" class="st4">{</text></g><g id="shape14-33" transform="translate(188.454,-273.846)"><title>Foglio.14</title><desc>m</desc><rect width="21.26" height="23.033" x="0" y="385.764" class="st3"/><text x="5.84" y="400.88" class="st2">m</text></g><g id="shape15-36" transform="translate(261.489,-322.391)"><title>Connettore dinamico</title><path d="M0 408.8 L-155.06 364.34" class="st5"/></g><g id="shape16-42" transform="translate(261.489,-322.391)"><title>Connettore dinamico.16</title><path d="M0 408.8 L-73.76 365.11" class="st5"/></g><g id="shape17-47" transform="translate(256.937,-322.391)"><title>Connettore dinamico.17</title><path d="M4.55 408.8 L9.26 366.69" class="st5"/></g><g id="shape18-52" transform="translate(261.489,-322.391)"><title>Connettore dinamico.18</title><path d="M0 408.8 L133.49 364.47" class="st5"/></g><g id="shape19-57" transform="translate(143.099,-176.759)"><title>Foglio.19</title><desc>male registering station</desc><rect width="104.882" height="26.221" x="0" y="382.577" class="st1"/><text x="12.99" y="392.09" class="st2">male registering <tspan x="35.51" class="st7" dy="1.2em">station</tspan></text></g><g id="shape21-61" transform="translate(274.91,-176.759)"><title>Foglio.21</title><desc>female registering station</desc><rect width="104.882" height="26.221" x="0" y="382.577" class="st1"/><text x="8.17" y="392.09" class="st2">female registering <tspan x="35.51" class="st7" dy="1.2em">station</tspan></text></g><g id="shape22-65" transform="translate(208.468,-202.98)"><title>Connettore dinamico.22</title><path d="M0 408.8 L37.19 371.08" class="st5"/></g><g id="shape23-70" transform="translate(314.143,-202.98)"><title>Connettore dinamico.23</title><path d="M0 408.8 L-38.02 371.06" class="st5"/></g><g id="shape24-75" transform="translate(233.808,-136.013)"><title>Foglio.24</title><rect width="53.858" height="13.465" x="0" y="395.333" class="st1"/></g><g id="shape25-77" transform="translate(233.808,-122.903)"><title>Foglio.25</title><rect width="53.858" height="13.465" x="0" y="395.333" class="st1"/></g><g id="shape26-79" transform="translate(233.808,-109.438)"><title>Foglio.26</title><rect width="53.858" height="13.465" x="0" y="395.333" class="st1"/></g><g id="shape27-81" transform="translate(233.808,-95.9734)"><title>Foglio.27</title><rect width="53.858" height="13.465" x="0" y="395.333" class="st1"/></g><g id="shape28-83" transform="translate(233.808,-70.1073)"><title>Foglio.28</title><desc>...</desc><rect width="53.858" height="25.937" x="0" y="382.86" class="st1"/><text x="22.39" y="399.43" class="st2">...</text></g><g id="shape32-86" transform="translate(251.423,-149.477)"><title>Connettore dinamico.32</title><path d="M0 408.8 L-35.09 383.43" class="st5"/></g><g id="shape33-91" transform="translate(270.254,-149.477)"><title>Connettore dinamico.33</title><path d="M0 408.8 L35.9 383.4" class="st5"/></g><g id="shape34-96" transform="translate(208.296,-18.375)"><title>Foglio.34</title><desc>incoming voters</desc><rect width="104.882" height="26.221" x="0" y="382.577" class="st3"/><text x="13.4" y="399.29" class="st2">incoming voters</text></g><g id="shape35-99" transform="translate(253.651,-31.4852)"><title>Connettore dinamico.35</title><path d="M7.09 408.8 L7.09 373.45" class="st5"/></g><g id="shape36-104" transform="translate(286.958,-95.9734)"><title>Foglio.36</title><desc>voter’s queue</desc><rect width="80.787" height="23.033" x="0" y="385.764" class="st3"/><text x="6.8" y="400.88" class="st2">voter’s queue</text></g></g></svg>