<svg xmlns="http://www.w3.org/2000/svg" xmlns:ev="http://www.w3.org/2001/xml-events" xmlns:xlink="http://www.w3.org/1999/xlink" width="249.025" height="207.74" class="st5" color-interpolation-filters="sRGB" viewBox="0 0 186.769 155.805" xml:space="preserve"><style type="text/css">.st1{fill:#fff;stroke:#000;stroke-linecap:round;stroke-linejoin:round;stroke-width:.75}.st2{fill:#000;font-family:Calibri;font-size:1.00001em}.st3,.st4{stroke:#000}.st3{marker-end:url(#mrkr2-21);stroke-linecap:round;stroke-linejoin:round;stroke-width:.75}.st4{fill:#000;fill-opacity:1;stroke-opacity:1;stroke-width:.22935779816514}.st5{fill:none;fill-rule:evenodd;font-size:12px;overflow:visible;stroke-linecap:square;stroke-miterlimit:3}</style><defs id="Markers"><g id="lend2"><path stroke="none" d="M 1 1 L 0 0 L 1 -1 L 1 1"/></g><marker id="mrkr2-21" class="st4" markerUnits="strokeWidth" orient="auto" overflow="visible" refX="-4.36"><use transform="scale(-4.36,-4.36)" xlink:href="#lend2"/></marker></defs><g><title>Pagina 1</title><g id="shape1-1" transform="translate(106.031,-120.422)"><title>Foglio.1</title><desc>1</desc><ellipse cx="8.504" cy="147.301" class="st1" rx="8.504" ry="8.504"/><text x="5.46" y="150.9" class="st2">1</text></g><g id="shape2-4" transform="translate(106.031,-69.3986)"><title>Foglio.2</title><desc>3</desc><ellipse cx="8.504" cy="147.301" class="st1" rx="8.504" ry="8.504"/><text x="5.46" y="150.9" class="st2">3</text></g><g id="shape3-7" transform="translate(60.6772,-69.3986)"><title>Foglio.3</title><desc>2</desc><ellipse cx="8.504" cy="147.301" class="st1" rx="8.504" ry="8.504"/><text x="5.46" y="150.9" class="st2">2</text></g><g id="shape4-10" transform="translate(151.386,-69.3986)"><title>Foglio.4</title><desc>2</desc><ellipse cx="8.504" cy="147.301" class="st1" rx="8.504" ry="8.504"/><text x="5.46" y="150.9" class="st2">2</text></g><g id="shape5-13" transform="translate(106.031,-18.375)"><title>Foglio.5</title><desc>4</desc><ellipse cx="8.504" cy="147.301" class="st1" rx="8.504" ry="8.504"/><text x="5.46" y="150.9" class="st2">4</text></g><g id="shape6-16" transform="translate(108.886,-122.57)"><title>Connettore dinamico</title><path d="M0 155.81 L-31.88 191.67" class="st3"/></g><g id="shape7-22" transform="translate(107.449,-120.422)"><title>Connettore dinamico.7</title><path d="M7.09 155.81 L7.09 186.55" class="st3"/></g><g id="shape8-27" transform="translate(120.185,-122.57)"><title>Connettore dinamico.8</title><path d="M0 155.81 L31.88 191.67" class="st3"/></g><g id="shape9-32" transform="translate(154.24,-71.5466)"><title>Connettore dinamico.9</title><path d="M0 155.81 L-31.88 191.67" class="st3"/></g><g id="shape10-37" transform="translate(107.449,-69.3986)"><title>Connettore dinamico.10</title><path d="M7.09 155.81 L7.09 186.55" class="st3"/></g><g id="shape11-42" transform="translate(74.8308,-71.5466)"><title>Connettore dinamico.11</title><path d="M0 155.81 L31.88 191.67" class="st3"/></g><g id="shape12-47" transform="translate(99.2596,-29.171)"><title>Connettore dinamico.12</title><path d="M7.09 155.81 L-61.26 155.81 L-61.26 58.34 L3.82 58.34" class="st3"/></g></g></svg>