<svg xmlns="http://www.w3.org/2000/svg" xmlns:ev="http://www.w3.org/2001/xml-events" xmlns:xlink="http://www.w3.org/1999/xlink" width="569.995" height="191.473" class="st6" color-interpolation-filters="sRGB" viewBox="0 0 427.496 143.605" xml:space="preserve"><style type="text/css">.st1{marker-start:url(#mrkr5-8);stroke-linecap:round;stroke-linejoin:round;stroke-width:.75}.st1,.st2,.st3{stroke:#000}.st2{fill:#000;fill-opacity:1;stroke-opacity:1;stroke-width:.22935779816514}.st3{marker-end:url(#mrkr5-15);stroke-linecap:round;stroke-linejoin:round;stroke-width:.75}.st4{fill:none}.st4,.st5{stroke:#000;stroke-linecap:round;stroke-linejoin:round;stroke-width:.75}.st6{fill:none;fill-rule:evenodd;font-size:12px;overflow:visible;stroke-linecap:square;stroke-miterlimit:3}</style><defs id="Markers"><g id="lend5"><path stroke="none" d="M 2 1 L 0 0 L 1.98117 -0.993387 C 1.67173 -0.364515 1.67301 0.372641 1.98465 1.00043"/></g><marker id="mrkr5-8" class="st2" markerUnits="strokeWidth" orient="auto" overflow="visible" refX="7.15"><use transform="scale(4.36)" xlink:href="#lend5"/></marker><marker id="mrkr5-15" class="st2" markerUnits="strokeWidth" orient="auto" overflow="visible" refX="-7.15"><use transform="scale(-4.36,-4.36)" xlink:href="#lend5"/></marker></defs><g><title>Pagina 1</title><g id="group4-1" transform="translate(52.7402,-88.4557)"><title>Foglio.4</title><g id="shape1-2" transform="translate(-1.59872E-14,-9.92125)"><title>Connettore dinamico</title><path d="M5.1 138.16 L5.45 138.27 C15.3 141.68 28.82 146.97 42.84 147.15 C59.34 147.37 76.54 140.49 85.04 136.52" class="st1"/></g><g id="shape2-9" transform="translate(0,-9.92125)"><title>Connettore dinamico.2</title><path d="M0 136.52 C9.92 132.27 26.43 125.59 42.24 125.19 C56 124.83 69.24 129.23 79.88 134.05 L80.2 134.21" class="st3"/></g><g id="shape3-16" transform="translate(3.04086E-06,0)"><title>Foglio.3</title><rect width="85.039" height="34.016" x="0" y="109.589" class="st4"/></g></g><g id="group6-18" transform="translate(171.348,-88.4557)"><title>Foglio.6</title><g id="shape7-19" transform="translate(-1.59872E-14,-9.92125)"><title>Connettore dinamico</title><path d="M5.1 138.16 L5.45 138.27 C15.3 141.68 28.82 146.97 42.84 147.15 C59.34 147.37 76.54 140.49 85.04 136.52" class="st1"/></g><g id="shape8-24" transform="translate(0,-9.92125)"><title>Connettore dinamico.2</title><path d="M0 136.52 C9.92 132.27 26.43 125.59 42.24 125.19 C56 124.83 69.24 129.23 79.88 134.05 L80.2 134.21" class="st3"/></g><g id="shape9-29" transform="translate(3.04086E-06,0)"><title>Foglio.9</title><rect width="85.039" height="34.016" x="0" y="109.589" class="st4"/></g></g><g id="group10-32" transform="translate(289.955,-88.4557)"><title>Foglio.10</title><g id="shape11-33" transform="translate(-1.59872E-14,-9.92125)"><title>Connettore dinamico</title><path d="M5.1 138.16 L5.45 138.27 C15.3 141.68 28.82 146.97 42.84 147.15 C59.34 147.37 76.54 140.49 85.04 136.52" class="st1"/></g><g id="shape12-38" transform="translate(0,-9.92125)"><title>Connettore dinamico.2</title><path d="M0 136.52 C9.92 132.27 26.43 125.59 42.24 125.19 C56 124.83 69.24 129.23 79.88 134.05 L80.2 134.21" class="st3"/></g><g id="shape13-43" transform="translate(3.04086E-06,0)"><title>Foglio.13</title><rect width="85.039" height="34.016" x="0" y="109.589" class="st4"/></g></g><g id="group22-45" transform="translate(52.7402,-20.4242)"><title>Foglio.22</title><g id="shape15-46" transform="translate(-1.59872E-14,-9.92125)"><title>Connettore dinamico</title><path d="M0 136.52 C9.92 139.35 26.02 146.94 42.84 147.15 C56.44 147.33 70.51 142.69 79.8 138.83 L80.13 138.68" class="st3"/></g><g id="shape16-51" transform="translate(0,-9.92125)"><title>Connettore dinamico.2</title><path d="M4.95 134.45 L5.28 134.31 C15.22 130.28 28.98 125.53 42.24 125.19 C58.33 124.77 73.7 130.85 85.04 136.52" class="st1"/></g><g id="shape17-56" transform="translate(3.04086E-06,0)"><title>Foglio.17</title><rect width="85.039" height="34.016" x="0" y="109.589" class="st4"/></g></g><g id="group23-58" transform="translate(171.348,-20.4242)"><title>Foglio.23</title><g id="shape24-59" transform="translate(-1.59872E-14,-9.92125)"><title>Connettore dinamico</title><path d="M0 136.52 C9.92 139.35 26.02 146.94 42.84 147.15 C56.44 147.33 70.51 142.69 79.8 138.83 L80.13 138.68" class="st3"/></g><g id="shape25-64" transform="translate(0,-9.92125)"><title>Connettore dinamico.2</title><path d="M4.95 134.45 L5.28 134.31 C15.22 130.28 28.98 125.53 42.24 125.19 C58.33 124.77 73.7 130.85 85.04 136.52" class="st1"/></g><g id="shape26-69" transform="translate(3.04086E-06,0)"><title>Foglio.26</title><rect width="85.039" height="34.016" x="0" y="109.589" class="st4"/></g></g><g id="group27-71" transform="translate(289.955,-20.4242)"><title>Foglio.27</title><g id="shape28-72" transform="translate(-1.59872E-14,-9.92125)"><title>Connettore dinamico</title><path d="M0 136.52 C9.92 139.35 26.02 146.94 42.84 147.15 C56.44 147.33 70.51 142.69 79.8 138.83 L80.13 138.68" class="st3"/></g><g id="shape29-77" transform="translate(0,-9.92125)"><title>Connettore dinamico.2</title><path d="M4.95 134.45 L5.28 134.31 C15.22 130.28 28.98 125.53 42.24 125.19 C58.33 124.77 73.7 130.85 85.04 136.52" class="st1"/></g><g id="shape30-82" transform="translate(3.04086E-06,0)"><title>Foglio.30</title><rect width="85.039" height="34.016" x="0" y="109.589" class="st4"/></g></g><g id="shape31-84" transform="translate(137.78,-98.377)"><title>Connettore dinamico</title><path d="M0 136.52 L33.57 136.52" class="st5"/></g><g id="shape32-87" transform="translate(256.387,-98.377)"><title>Connettore dinamico.32</title><path d="M0 136.52 L33.57 136.52" class="st5"/></g><g id="shape35-90" transform="translate(256.387,-30.3455)"><title>Connettore dinamico.35</title><path d="M0 136.52 L33.57 136.52" class="st5"/></g><g id="shape36-93" transform="translate(137.78,-30.3455)"><title>Connettore dinamico.36</title><path d="M0 136.52 L33.57 136.52" class="st5"/></g><g id="shape37-96" transform="translate(59.8268,-37.4321)"><title>Connettore dinamico.37</title><path d="M-7.09 143.6 L-21.83 143.6 L-21.83 75.57 L-7.09 75.57" class="st5"/></g><g id="shape38-99" transform="translate(367.908,-37.4321)"><title>Connettore dinamico.38</title><path d="M7.09 143.6 L21.59 143.6 L21.59 75.57 L7.09 75.57" class="st5"/></g></g></svg>