<svg xmlns="http://www.w3.org/2000/svg" xmlns:ev="http://www.w3.org/2001/xml-events" xmlns:xlink="http://www.w3.org/1999/xlink" width="767.906" height="231.077" class="st6" color-interpolation-filters="sRGB" viewBox="0 0 575.929 173.308" xml:space="preserve"><style type="text/css">.st1{fill:#fff;stroke:#000;stroke-linecap:round;stroke-linejoin:round;stroke-width:.75}.st2,.st3{fill:#000;font-family:Consolas;font-size:.916672em}.st3{font-family:Calibri}.st4,.st5{stroke:#000;stroke-linecap:round;stroke-linejoin:round;stroke-width:.75}.st5{fill:none;stroke:none}.st6{fill:none;fill-rule:evenodd;font-size:12px;overflow:visible;stroke-linecap:square;stroke-miterlimit:3}</style><g><title>Pagina 1</title><g id="shape78-1" transform="translate(18.375,-131.086)"><title>Foglio.78</title><desc>FileI1</desc><rect width="60.945" height="19.348" x="0" y="153.96" class="st1"/><text x="12.33" y="166.93" class="st2">FileI1</text></g><g id="shape79-4" transform="translate(18.375,-90.4785)"><title>Foglio.79</title><desc>FileI2</desc><rect width="60.945" height="19.348" x="0" y="153.96" class="st1"/><text x="12.33" y="166.93" class="st2">FileI2</text></g><g id="shape80-7" transform="translate(18.375,-22.8744)"><title>Foglio.80</title><desc>FileIN</desc><rect width="60.945" height="19.348" x="0" y="153.96" class="st1"/><text x="12.33" y="166.93" class="st2">FileIN</text></g><g id="shape81-10" transform="translate(114.38,-126.586)"><title>Foglio.81</title><desc>TA1</desc><ellipse cx="14.173" cy="159.135" class="st1" rx="14.173" ry="14.173"/><text x="5.52" y="162.43" class="st3">TA1</text></g><g id="shape82-13" transform="translate(114.38,-85.979)"><title>Foglio.82</title><desc>TA2</desc><ellipse cx="14.173" cy="159.135" class="st1" rx="14.173" ry="14.173"/><text x="5.52" y="162.43" class="st3">TA2</text></g><g id="shape83-16" transform="translate(114.38,-18.375)"><title>Foglio.83</title><desc>TAN</desc><ellipse cx="14.173" cy="159.135" class="st1" rx="14.173" ry="14.173"/><text x="4.76" y="162.43" class="st3">TAN</text></g><g id="shape84-19" transform="translate(177.787,-131.086)"><title>Foglio.84</title><desc>QueueA1</desc><rect width="60.945" height="19.348" x="0" y="153.96" class="st1"/><text x="9.3" y="166.93" class="st2">QueueA1</text></g><g id="shape85-22" transform="translate(177.787,-90.4785)"><title>Foglio.85</title><desc>QueueA2</desc><rect width="60.945" height="19.348" x="0" y="153.96" class="st1"/><text x="9.3" y="166.93" class="st2">QueueA2</text></g><g id="shape86-25" transform="translate(177.787,-22.8744)"><title>Foglio.86</title><desc>QueueAN</desc><rect width="60.945" height="19.348" x="0" y="153.96" class="st1"/><text x="9.3" y="166.93" class="st2">QueueAN</text></g><g id="shape87-28" transform="translate(273.791,-126.586)"><title>Foglio.87</title><desc>TB1</desc><ellipse cx="14.173" cy="159.135" class="st1" rx="14.173" ry="14.173"/><text x="5.71" y="162.43" class="st3">TB1</text></g><g id="shape88-31" transform="translate(273.791,-85.979)"><title>Foglio.88</title><desc>TB2</desc><ellipse cx="14.173" cy="159.135" class="st1" rx="14.173" ry="14.173"/><text x="5.71" y="162.43" class="st3">TB2</text></g><g id="shape89-34" transform="translate(273.791,-18.375)"><title>Foglio.89</title><desc>TBN</desc><ellipse cx="14.173" cy="159.135" class="st1" rx="14.173" ry="14.173"/><text x="4.95" y="162.43" class="st3">TBN</text></g><g id="shape90-37" transform="translate(337.198,-131.086)"><title>Foglio.90</title><desc>QueueB1</desc><rect width="60.945" height="19.348" x="0" y="153.96" class="st1"/><text x="9.3" y="166.93" class="st2">QueueB1</text></g><g id="shape91-40" transform="translate(337.198,-90.4785)"><title>Foglio.91</title><desc>QueueB2</desc><rect width="60.945" height="19.348" x="0" y="153.96" class="st1"/><text x="9.3" y="166.93" class="st2">QueueB2</text></g><g id="shape92-43" transform="translate(337.198,-22.8744)"><title>Foglio.92</title><desc>QueueBN</desc><rect width="60.945" height="19.348" x="0" y="153.96" class="st1"/><text x="9.3" y="166.93" class="st2">QueueBN</text></g><g id="shape93-46" transform="translate(433.203,-126.586)"><title>Foglio.93</title><desc>TC1</desc><ellipse cx="14.173" cy="159.135" class="st1" rx="14.173" ry="14.173"/><text x="5.77" y="162.43" class="st3">TC1</text></g><g id="shape94-49" transform="translate(433.203,-85.979)"><title>Foglio.94</title><desc>TC2</desc><ellipse cx="14.173" cy="159.135" class="st1" rx="14.173" ry="14.173"/><text x="5.77" y="162.43" class="st3">TC2</text></g><g id="shape95-52" transform="translate(433.203,-18.375)"><title>Foglio.95</title><desc>TCN</desc><ellipse cx="14.173" cy="159.135" class="st1" rx="14.173" ry="14.173"/><text x="5.01" y="162.43" class="st3">TCN</text></g><g id="shape96-55" transform="translate(496.61,-131.086)"><title>Foglio.96</title><desc>FileO1</desc><rect width="60.945" height="19.348" x="0" y="153.96" class="st1"/><text x="12.33" y="166.93" class="st2">FileO1</text></g><g id="shape97-58" transform="translate(496.61,-90.4785)"><title>Foglio.97</title><desc>FileO2</desc><rect width="60.945" height="19.348" x="0" y="153.96" class="st1"/><text x="12.33" y="166.93" class="st2">FileO2</text></g><g id="shape98-61" transform="translate(496.61,-22.8744)"><title>Foglio.98</title><desc>FileON</desc><rect width="60.945" height="19.348" x="0" y="153.96" class="st1"/><text x="12.33" y="166.93" class="st2">FileON</text></g><g id="shape99-64" transform="translate(79.3199,-133.673)"><title>Connettore dinamico</title><path d="M0 166.22 L35.06 166.22" class="st4"/></g><g id="shape100-67" transform="translate(79.3199,-140.76)"><title>Connettore dinamico.29</title><path d="M0 173.31 L38.3 204.9" class="st4"/></g><g id="shape101-70" transform="translate(79.3199,-140.76)"><title>Connettore dinamico.30</title><path d="M0 173.31 L43.36 268.62" class="st4"/></g><g id="shape102-73" transform="translate(79.3199,-100.152)"><title>Connettore dinamico.31</title><path d="M0 173.31 L38.3 141.72" class="st4"/></g><g id="shape103-76" transform="translate(79.3199,-100.152)"><title>Connettore dinamico.33</title><path d="M0 173.31 L40.89 229.45" class="st4"/></g><g id="shape104-79" transform="translate(79.3199,-32.5482)"><title>Connettore dinamico.34</title><path d="M0 173.31 L43.36 78" class="st4"/></g><g id="shape105-82" transform="translate(79.3199,-32.5482)"><title>Connettore dinamico.35</title><path d="M0 173.31 L40.89 117.16" class="st4"/></g><g id="shape106-85" transform="translate(142.726,-133.673)"><title>Connettore dinamico.37</title><path d="M0 166.22 L35.06 166.22" class="st4"/></g><g id="shape107-88" transform="translate(139.487,-131.741)"><title>Connettore dinamico.38</title><path d="M0 173.31 L38.3 204.9" class="st4"/></g><g id="shape108-91" transform="translate(134.423,-127.859)"><title>Connettore dinamico.39</title><path d="M0 173.31 L43.36 268.62" class="st4"/></g><g id="shape109-94" transform="translate(139.487,-109.171)"><title>Connettore dinamico.40</title><path d="M0 173.31 L38.3 141.72" class="st4"/></g><g id="shape110-97" transform="translate(142.726,-93.0657)"><title>Connettore dinamico.42</title><path d="M0 166.22 L35.06 166.22" class="st4"/></g><g id="shape111-100" transform="translate(136.897,-88.6953)"><title>Connettore dinamico.43</title><path d="M0 173.31 L40.89 229.45" class="st4"/></g><g id="shape112-103" transform="translate(136.897,-44.0052)"><title>Connettore dinamico.44</title><path d="M0 173.31 L40.89 117.16" class="st4"/></g><g id="shape113-106" transform="translate(134.423,-45.449)"><title>Connettore dinamico.45</title><path d="M0 173.31 L43.36 78" class="st4"/></g><g id="shape114-109" transform="translate(142.726,-25.4616)"><title>Connettore dinamico.46</title><path d="M0 166.22 L35.06 166.22" class="st4"/></g><g id="shape115-112" transform="translate(238.731,-133.673)"><title>Connettore dinamico.47</title><path d="M0 166.22 L35.06 166.22" class="st4"/></g><g id="shape116-115" transform="translate(238.731,-140.76)"><title>Connettore dinamico.48</title><path d="M0 173.31 L38.3 204.9" class="st4"/></g><g id="shape117-118" transform="translate(238.731,-140.76)"><title>Connettore dinamico.49</title><path d="M0 173.31 L43.36 268.62" class="st4"/></g><g id="shape118-121" transform="translate(238.731,-100.152)"><title>Connettore dinamico.50</title><path d="M0 173.31 L38.3 141.72" class="st4"/></g><g id="shape119-124" transform="translate(238.731,-93.0657)"><title>Connettore dinamico.51</title><path d="M0 166.22 L35.06 166.22" class="st4"/></g><g id="shape120-127" transform="translate(238.731,-100.152)"><title>Connettore dinamico.52</title><path d="M0 173.31 L40.89 229.45" class="st4"/></g><g id="shape121-130" transform="translate(238.731,-32.5482)"><title>Connettore dinamico.53</title><path d="M0 173.31 L40.89 117.16" class="st4"/></g><g id="shape122-133" transform="translate(238.731,-32.5482)"><title>Connettore dinamico.54</title><path d="M0 173.31 L43.36 78" class="st4"/></g><g id="shape123-136" transform="translate(238.731,-25.4616)"><title>Connettore dinamico.55</title><path d="M0 166.22 L35.06 166.22" class="st4"/></g><g id="shape124-139" transform="translate(302.138,-133.673)"><title>Connettore dinamico.56</title><path d="M0 166.22 L35.06 166.22" class="st4"/></g><g id="shape125-142" transform="translate(298.899,-131.741)"><title>Connettore dinamico.57</title><path d="M0 173.31 L38.3 204.9" class="st4"/></g><g id="shape126-145" transform="translate(293.834,-127.859)"><title>Connettore dinamico.58</title><path d="M0 173.31 L43.36 268.62" class="st4"/></g><g id="shape127-148" transform="translate(298.899,-109.171)"><title>Connettore dinamico.59</title><path d="M0 173.31 L38.3 141.72" class="st4"/></g><g id="shape128-151" transform="translate(302.138,-93.0657)"><title>Connettore dinamico.60</title><path d="M0 166.22 L35.06 166.22" class="st4"/></g><g id="shape129-154" transform="translate(296.308,-88.6953)"><title>Connettore dinamico.61</title><path d="M0 173.31 L40.89 229.45" class="st4"/></g><g id="shape130-157" transform="translate(293.834,-45.449)"><title>Connettore dinamico.62</title><path d="M0 173.31 L43.36 78" class="st4"/></g><g id="shape131-160" transform="translate(296.308,-44.0052)"><title>Connettore dinamico.63</title><path d="M0 173.31 L40.89 117.16" class="st4"/></g><g id="shape132-163" transform="translate(302.138,-25.4616)"><title>Connettore dinamico.64</title><path d="M0 166.22 L35.06 166.22" class="st4"/></g><g id="shape133-166" transform="translate(398.143,-133.673)"><title>Connettore dinamico.65</title><path d="M0 166.22 L35.06 166.22" class="st4"/></g><g id="shape134-169" transform="translate(398.143,-140.76)"><title>Connettore dinamico.66</title><path d="M0 173.31 L38.3 204.9" class="st4"/></g><g id="shape135-172" transform="translate(398.143,-140.76)"><title>Connettore dinamico.67</title><path d="M0 173.31 L43.36 268.62" class="st4"/></g><g id="shape136-175" transform="translate(398.143,-100.152)"><title>Connettore dinamico.68</title><path d="M0 173.31 L38.3 141.72" class="st4"/></g><g id="shape137-178" transform="translate(398.143,-93.0657)"><title>Connettore dinamico.69</title><path d="M0 166.22 L35.06 166.22" class="st4"/></g><g id="shape138-181" transform="translate(398.143,-100.152)"><title>Connettore dinamico.70</title><path d="M0 173.31 L40.89 229.45" class="st4"/></g><g id="shape139-184" transform="translate(398.143,-32.5482)"><title>Connettore dinamico.71</title><path d="M0 173.31 L43.36 78" class="st4"/></g><g id="shape140-187" transform="translate(398.143,-32.5482)"><title>Connettore dinamico.72</title><path d="M0 173.31 L40.89 117.16" class="st4"/></g><g id="shape141-190" transform="translate(398.143,-25.4616)"><title>Connettore dinamico.73</title><path d="M0 166.22 L35.06 166.22" class="st4"/></g><g id="shape142-193" transform="translate(461.549,-133.673)"><title>Connettore dinamico.74</title><path d="M0 166.22 L35.06 166.22" class="st4"/></g><g id="shape143-196" transform="translate(458.31,-131.741)"><title>Connettore dinamico.75</title><path d="M0 173.31 L38.3 204.9" class="st4"/></g><g id="shape144-199" transform="translate(453.246,-127.859)"><title>Connettore dinamico.76</title><path d="M0 173.31 L43.36 268.62" class="st4"/></g><g id="shape145-202" transform="translate(458.31,-109.171)"><title>Connettore dinamico.77</title><path d="M0 173.31 L38.3 141.72" class="st4"/></g><g id="shape146-205" transform="translate(461.549,-93.0657)"><title>Connettore dinamico.78</title><path d="M0 166.22 L35.06 166.22" class="st4"/></g><g id="shape147-208" transform="translate(455.72,-88.6953)"><title>Connettore dinamico.79</title><path d="M0 173.31 L40.89 229.45" class="st4"/></g><g id="shape148-211" transform="translate(453.246,-45.449)"><title>Connettore dinamico.80</title><path d="M0 173.31 L43.36 78" class="st4"/></g><g id="shape149-214" transform="translate(455.72,-44.0052)"><title>Connettore dinamico.81</title><path d="M0 173.31 L40.89 117.16" class="st4"/></g><g id="shape150-217" transform="translate(461.549,-25.4616)"><title>Connettore dinamico.82</title><path d="M0 166.22 L35.06 166.22" class="st4"/></g><g id="shape151-220" transform="translate(18.375,-54.483)"><title>Foglio.151</title><desc>...</desc><rect width="60.945" height="28.346" x="0" y="144.961" class="st5"/><text x="21.4" y="162.43" class="st2">...</text></g><g id="shape152-223" transform="translate(496.61,-54.483)"><title>Foglio.152</title><desc>...</desc><rect width="60.945" height="28.346" x="0" y="144.961" class="st5"/><text x="21.4" y="162.43" class="st2">...</text></g><g id="shape153-226" transform="translate(79.3199,-25.4616)"><title>Connettore dinamico.87</title><path d="M0 166.22 L35.06 166.22" class="st4"/></g><g id="shape154-229" transform="translate(79.3199,-93.0657)"><title>Connettore dinamico.88</title><path d="M0 166.22 L35.06 166.22" class="st4"/></g></g></svg>